<svg width="103" height="55" viewBox="0 0 103 55" fill="none" xmlns="http://www.w3.org/2000/svg">
<path d="M86.43 2.59999H15.81C7.35452 2.59999 0.5 9.45451 0.5 17.91V38.31C0.5 46.7655 7.35452 53.62 15.81 53.62H86.43C94.8855 53.62 101.74 46.7655 101.74 38.31V17.91C101.74 9.45451 94.8855 2.59999 86.43 2.59999Z" fill="#EECA39" stroke="black" stroke-linecap="round" stroke-linejoin="round"/>
<path d="M94.31 37.97C93.53 44.09 88.05 48.43 82.08 47.66" stroke="black" stroke-linecap="round" stroke-linejoin="round"/>
<path d="M49.9687 25.8893V33.3268C49.9687 33.4677 50.0247 33.6029 50.1243 33.7025C50.224 33.8021 50.3591 33.8581 50.5 33.8581C50.6409 33.8581 50.776 33.8021 50.8756 33.7025C50.9753 33.6029 51.0312 33.4677 51.0312 33.3268V25.8893C51.0312 25.7484 50.9753 25.6133 50.8756 25.5137C50.776 25.4141 50.6409 25.3581 50.5 25.3581C50.3591 25.3581 50.224 25.4141 50.1243 25.5137C50.0247 25.6133 49.9687 25.7484 49.9687 25.8893ZM43.4344 25.3581C43.5038 25.3511 43.5739 25.3579 43.6407 25.378C43.7075 25.3981 43.7697 25.4312 43.8237 25.4753C43.8777 25.5195 43.9225 25.5739 43.9555 25.6353C43.9885 25.6968 44.0091 25.7641 44.0161 25.8336L44.7598 33.2711C44.7675 33.3409 44.7613 33.4116 44.7416 33.479C44.7218 33.5464 44.6888 33.6092 44.6446 33.6638C44.6004 33.7184 44.5458 33.7637 44.4839 33.797C44.4221 33.8304 44.3543 33.8511 44.2844 33.8581H44.2299C44.0977 33.8588 43.9701 33.8101 43.8719 33.7217C43.7736 33.6333 43.7119 33.5115 43.6987 33.38L42.9549 25.9425C42.9476 25.8725 42.9542 25.8018 42.9744 25.7345C42.9946 25.6671 43.028 25.6045 43.0725 25.5501C43.1171 25.4958 43.1721 25.4508 43.2342 25.4178C43.2963 25.3849 43.3643 25.3646 43.4344 25.3581ZM57.5656 25.3581C57.635 25.3651 57.7024 25.3856 57.7638 25.4187C57.8253 25.4517 57.8797 25.4965 57.9238 25.5505C57.968 25.6045 58.0011 25.6667 58.0212 25.7335C58.0413 25.8003 58.0481 25.8704 58.0411 25.9398L57.2973 33.3773C57.2841 33.5088 57.2224 33.6307 57.1241 33.7191C57.0259 33.8075 56.8982 33.8561 56.7661 33.8554H56.7116C56.6422 33.8485 56.5748 33.8279 56.5134 33.7949C56.4519 33.7619 56.3976 33.7171 56.3534 33.663C56.3093 33.609 56.2762 33.5468 56.2561 33.48C56.2359 33.4132 56.2292 33.3431 56.2362 33.2737L56.9799 25.8362C56.9865 25.7662 57.007 25.6982 57.0401 25.6361C57.0732 25.5741 57.1184 25.5192 57.1728 25.4748C57.2273 25.4303 57.2901 25.3971 57.3575 25.377C57.4249 25.357 57.4957 25.3506 57.5656 25.3581ZM36.1562 21.7097L38.163 36.7255C38.2142 37.1081 38.4024 37.4592 38.6929 37.7134C38.9833 37.9677 39.3562 38.108 39.7422 38.1081H61.2578C61.6438 38.108 62.0167 37.9677 62.3071 37.7134C62.5975 37.4592 62.7858 37.1081 62.8369 36.7255L64.8437 21.7097C64.8529 21.6343 64.8457 21.5579 64.8228 21.4855C64.7999 21.4131 64.7618 21.3464 64.7109 21.29C64.6613 21.2331 64.6 21.1875 64.5313 21.1561C64.4626 21.1247 64.388 21.1084 64.3125 21.1081H58.1792L50.8984 12.79C50.8486 12.7335 50.7873 12.6882 50.7186 12.6572C50.6499 12.6262 50.5754 12.6102 50.5 12.6102C50.4246 12.6102 50.3501 12.6262 50.2814 12.6572C50.2127 12.6882 50.1514 12.7335 50.1015 12.79L42.8208 21.1081H36.6875C36.6119 21.1084 36.5373 21.1247 36.4686 21.1561C36.3999 21.1875 36.3387 21.2331 36.289 21.29C36.2382 21.3464 36.2 21.4131 36.1771 21.4855C36.1542 21.5579 36.1471 21.6343 36.1562 21.7097ZM56.7661 21.1081H44.2339L50.5 13.9455L56.7661 21.1081ZM37.2944 22.1706H63.7055L61.789 36.5847C61.7719 36.7131 61.7084 36.8308 61.6106 36.9157C61.5128 37.0005 61.3873 37.0467 61.2578 37.0456H39.7422C39.6127 37.0467 39.4872 37.0005 39.3894 36.9157C39.2915 36.8308 39.2281 36.7131 39.2109 36.5847L37.2944 22.1706Z" fill="black"/>
</svg>
