<svg width="108" height="74" viewBox="0 0 108 74" fill="none" xmlns="http://www.w3.org/2000/svg">
<path d="M90.38 0.5H19.76C11.3045 0.5 4.45001 7.35452 4.45001 15.81V36.21C4.45001 44.6655 11.3045 51.52 19.76 51.52H90.38C98.8355 51.52 105.69 44.6655 105.69 36.21V15.81C105.69 7.35452 98.8355 0.5 90.38 0.5Z" fill="#3B5BA5" stroke="black" stroke-linecap="round" stroke-linejoin="round"/>
<path d="M25.58 9.46001H40.91C47.21 9.46001 52.33 14.58 52.33 20.88V29.41C52.33 38.22 45.18 45.37 36.37 45.37H31.25C21.81 45.37 14.15 37.71 14.15 28.27V20.88C14.15 14.58 19.27 9.46001 25.57 9.46001H25.58Z" fill="#F8F8F6" stroke="black" stroke-linecap="round" stroke-linejoin="round"/>
<path d="M69.61 9.46001H84.94C91.24 9.46001 96.36 14.58 96.36 20.88V29.41C96.36 38.22 89.21 45.37 80.4 45.37H75.28C65.84 45.37 58.18 37.71 58.18 28.27V20.88C58.18 14.58 63.3 9.46001 69.6 9.46001H69.61Z" fill="#F8F8F6" stroke="black" stroke-linecap="round" stroke-linejoin="round"/>
<path d="M3.76 51.52H104.39C105.98 51.52 107.27 52.81 107.27 54.4C107.27 64.49 99.08 72.68 88.99 72.68H19.16C9.07001 72.69 0.880005 64.5 0.880005 54.41C0.880005 52.82 2.17 51.53 3.76 51.53V51.52Z" fill="#EECA39" stroke="black" stroke-linecap="round" stroke-linejoin="round"/>
<path d="M41.78 9.46001H68.73" stroke="black" stroke-linecap="round" stroke-linejoin="round"/>
<path d="M52.33 19.83H58.19" stroke="black" stroke-linecap="round" stroke-linejoin="round"/>
<path d="M66.83 23.51L72.29 18.09" stroke="black" stroke-linecap="round" stroke-linejoin="round"/>
<path d="M69.37 28.52L79.8 18.09" stroke="black" stroke-linecap="round" stroke-linejoin="round"/>
<path d="M22.66 23.51L28.12 18.09" stroke="black" stroke-linecap="round" stroke-linejoin="round"/>
<path d="M25.19 28.52L35.63 18.09" stroke="black" stroke-linecap="round" stroke-linejoin="round"/>
<path d="M101.94 56.67C101.16 62.79 95.68 67.13 89.71 66.36" stroke="black" stroke-linecap="round" stroke-linejoin="round"/>
</svg>
