<svg width="90" height="90" viewBox="0 0 90 90" fill="none" xmlns="http://www.w3.org/2000/svg">
<path d="M33.75 46.0866C32.5068 46.0866 31.3145 46.5917 30.4354 47.4908C29.5564 48.3898 29.0625 49.6092 29.0625 50.8806C29.0625 52.1521 29.5564 53.3715 30.4354 54.2705C31.3145 55.1696 32.5068 55.6747 33.75 55.6747C34.3656 55.6747 34.9751 55.5507 35.5438 55.3098C36.1125 55.0688 36.6293 54.7157 37.0646 54.2705C37.4998 53.8254 37.8451 53.2969 38.0807 52.7152C38.3163 52.1336 38.4375 51.5102 38.4375 50.8806C38.4375 50.2511 38.3163 49.6277 38.0807 49.046C37.8451 48.4644 37.4998 47.9359 37.0646 47.4908C36.6293 47.0456 36.1125 46.6925 35.5438 46.4515C34.9751 46.2106 34.3656 46.0866 33.75 46.0866ZM56.25 46.0866C55.0068 46.0866 53.8145 46.5917 52.9354 47.4908C52.0564 48.3898 51.5625 49.6092 51.5625 50.8806C51.5625 52.1521 52.0564 53.3715 52.9354 54.2705C53.8145 55.1696 55.0068 55.6747 56.25 55.6747C57.4932 55.6747 58.6855 55.1696 59.5646 54.2705C60.4436 53.3715 60.9375 52.1521 60.9375 50.8806C60.9375 49.6092 60.4436 48.3898 59.5646 47.4908C58.6855 46.5917 57.4932 46.0866 56.25 46.0866ZM45 8.69315C40.0754 8.69315 35.1991 9.68516 30.6494 11.6125C26.0997 13.5399 21.9657 16.3649 18.4835 19.9263C11.4509 27.1187 7.5 36.8738 7.5 47.0454C7.5 57.2171 11.4509 66.9721 18.4835 74.1646C21.9657 77.7259 26.0997 80.5509 30.6494 82.4783C35.1991 84.4057 40.0754 85.3977 45 85.3977C54.9456 85.3977 64.4839 81.357 71.5165 74.1646C78.5491 66.9721 82.5 57.2171 82.5 47.0454C82.5 42.0089 81.53 37.0217 79.6455 32.3686C77.7609 27.7155 74.9987 23.4876 71.5165 19.9263C68.0343 16.3649 63.9003 13.5399 59.3506 11.6125C54.8009 9.68516 49.9246 8.69315 45 8.69315ZM45 77.7272C28.4625 77.7272 15 63.9588 15 47.0454C15 45.9332 15 44.821 15.1875 43.7471C24.0375 39.7201 31.05 32.3181 34.725 23.152C39.0108 29.3757 45.0155 34.1495 51.9702 36.8621C58.9248 39.5746 66.5128 40.1024 73.7625 38.3778C74.55 41.1008 75 44.0156 75 47.0454C75 63.9588 61.5375 77.7272 45 77.7272Z" fill="white"/>
<path d="M31.5 44.5021C29.7098 44.5021 27.9929 45.2294 26.727 46.524C25.4612 47.8187 24.75 49.5746 24.75 51.4055C24.75 53.2364 25.4612 54.9923 26.727 56.2869C27.9929 57.5816 29.7098 58.3089 31.5 58.3089C33.2902 58.3089 35.0071 57.5816 36.273 56.2869C37.5388 54.9923 38.25 53.2364 38.25 51.4055C38.25 49.5746 37.5388 47.8187 36.273 46.524C35.0071 45.2294 33.2902 44.5021 31.5 44.5021ZM20.25 51.4055C20.2502 49.221 20.8585 47.0817 22.0037 45.2378C23.1489 43.3938 24.7837 41.9214 26.717 40.9927C28.6502 40.0639 30.8021 39.7172 32.9209 39.9931C35.0397 40.269 37.038 41.1561 38.682 42.5507C40.3657 40.8525 42.6353 39.9002 45 39.8998C47.4638 39.8998 49.6935 40.9123 51.318 42.5507C53.4632 40.7331 56.1915 39.7941 58.9748 39.9156C61.758 40.0371 64.3982 41.2104 66.3842 43.2083C68.3702 45.2062 69.5608 47.8867 69.7254 50.7307C69.8901 53.5748 69.0171 56.3803 67.2755 58.6039C65.5339 60.8276 63.0476 62.3113 60.2978 62.7678C57.5481 63.2244 54.7305 62.6213 52.3905 61.0753C50.0505 59.5293 48.3546 57.1504 47.6311 54.399C46.9076 51.6477 47.208 48.7197 48.474 46.1819C48.0521 45.657 47.5218 45.2341 46.9211 44.9437C46.3205 44.6532 45.6644 44.5024 45 44.5021C43.605 44.5021 42.3518 45.1533 41.526 46.1819C42.2973 47.7317 42.7151 49.4401 42.7479 51.1788C42.7807 52.9175 42.4278 54.6412 41.7156 56.2203C41.0033 57.7994 39.9504 59.1928 38.6359 60.2959C37.3214 61.3989 35.7794 62.1829 34.1261 62.5888C32.4727 62.9947 30.7508 63.0121 29.0899 62.6395C27.4291 62.267 25.8723 61.5143 24.5368 60.4379C23.2013 59.3616 22.1217 57.9896 21.3792 56.4251C20.6368 54.8607 20.2507 53.1445 20.25 51.4055ZM58.5 44.5021C57.6132 44.5008 56.735 44.6786 55.9155 45.0251C55.096 45.3716 54.3514 45.88 53.7244 46.5213C53.0974 47.1626 52.6002 47.9241 52.2614 48.7622C51.9226 49.6003 51.7488 50.4986 51.75 51.4055C51.75 52.7708 52.1459 54.1055 52.8876 55.2408C53.6293 56.3761 54.6835 57.2609 55.9169 57.7834C57.1503 58.3059 58.5075 58.4426 59.8169 58.1762C61.1262 57.9099 62.329 57.2524 63.273 56.2869C64.217 55.3215 64.8599 54.0914 65.1203 52.7522C65.3808 51.4131 65.2471 50.0251 64.7362 48.7636C64.2253 47.5022 63.3601 46.424 62.2501 45.6655C61.1401 44.9069 59.835 44.5021 58.5 44.5021Z" fill="white"/>
</svg>
