<?xml version="1.0" encoding="UTF-8"?>
<svg id="Calque_2" data-name="Calque 2" xmlns="http://www.w3.org/2000/svg" viewBox="0 0 132.83 51.42">
  <defs>
    <style>
      .cls-1 {
        fill: none;
        stroke: #000;
      }

      .cls-1, .cls-2 {
        stroke-miterlimit: 10;
        stroke-width: .5px;
      }

      .cls-2 {
        fill: #fff;
        stroke: #1d1d1b;
      }

      .cls-3, .cls-4 {
        isolation: isolate;
      }

      .cls-5 {
        fill: #e6e6e6;
        opacity: .3;
      }

      .cls-4 {
        fill: #706f6f;
        mix-blend-mode: multiply;
      }
    </style>
  </defs>
  <g id="lunette">
    <g class="cls-3">
      <g id="branches">
        <path class="cls-2" d="M2.08,14.26s16.12-1.82,17.94-2.86,3.64-2.6,6.37-3.12,21.06-3.64,21.06-3.64c0,0,2.34-.65,5.72,1.82,3.38,2.47,10.79,10.4,12.87,10.14,2.08-.26,3.12-3.12,2.47-4.42S55.22,1.49,53.04.87C49.93,0,45.89.09,40.95.87,36.01,1.65,2.99,8.49,2.99,8.49c0,0-4.29,2-.91,5.77h0Z"/>
        <path class="cls-4" d="M67.21,12.83s-.1,2.01-1.3,1.82c-1.62-.25-11.7-11.05-15.08-10.53,0,0,2.79.89,6.03,3.8,2.13,1.91,11.24,12.36,10.35,4.91h0Z"/>
        <path class="cls-2" d="M88.94,22.26l29.57-9.73s7.23-1.84,8.28-1.31,5.78,9.99,5.78,11.04-.79,4.58-1.84,4.86c-.76.21-1.74.04-2.23-1.38-.46-1.31-2.23-10.36-4.07-10.28s-16.56,5.21-16.56,5.21c0,0-4.34,2.1-6.18,3.68s-10.51,3.68-10.51,3.68c0,0-3.15-2.5-2.23-5.78h0Z"/>
        <path class="cls-4" d="M91.08,22.41s33.4-11.49,35.22-10.45c0,0-5.94.81-13.64,3.88s-21.59,7.2-21.59,7.2v-.63Z"/>
        <path class="cls-4" d="M125.06,15.21s1.06,0,1.63,1.13,3.19,8.07,3.19,8.07c0,0,.25,1.63,1.69-.88,0,0-1,3.12-1.75,2.22s-3.19-8.6-3.19-8.6c0,0-.94-2.2-1.56-1.94h0Z"/>
      </g>
      <g id="monture">
        <path class="cls-2" d="M92.38,22.64c-.08-1.11-3.13-1.7-4.15-2.09-1.03-.39-5.13.64-5.13.64-3.97-1.03-17.82-2.95-25.76-2.95s-10.64,3.72-11.54,3.59-5.64-.25-7.69-.64c-2.05-.39-1.67-4.61-12.82-8.65C14.14,8.51,2.99,8.49,2.99,8.49-1.37,10.01.78,14.53.78,14.53l.67,2.07c1.41.66,1.03,3.44,1.54,7.54s2.44,9.36,4.61,12.56c2.18,3.2,10.38,6.79,14.48,6.92s7.69-.64,10.38-5c2.69-4.36,5.51-12.05,5.51-12.05l3.33.51s.95.1,1.75,1.01,1.45,2.62,2.48,5.65c2.47,7.22,8.2,12.82,8.2,12.82,0,0,1.83,2.43,10.92,4.13,7.54,1.42,13.95-.8,13.95-.8,5.79-2.34,7.06-14.68,7.06-14.68,0,0,.6-4.34,2.55-5.44,2.41-1.35,2.7-1.45,4.15-1.74,1.18-.23.08-4.29,0-5.4h0ZM28.75,39.14c-3.08,1.67-10.51,2.31-15.13-1.28-4.61-3.59-6.79-9.87-7.43-17.3s2.32-8.24,2.32-8.24c0,0,4.86-.22,11.14,1.32,6.28,1.54,13.2,5.9,13.33,8.72.13,2.82-1.15,15.13-4.23,16.79h0ZM79.13,47.09c-2.95,1.41-7.01,1.54-10.43,1.28-3.42-.25-12.26-.51-15.46-10.26,0,0-.9-4.61-1.67-5.64s-3.08-4.73-3.08-6.02c0-2.69,2.34-4.24,2.34-4.24,0,0,2.67-1.67,6.12-1.67s21.15.9,23.58,4.23,2.31,7.18,2.69,10.26-1.15,10.64-4.1,12.05h0Z"/>
      </g>
      <g id="verres">
        <path class="cls-5" d="M4.53,16.78c-.29,1.98.13,12.22,3.74,18.06,3.61,5.85,12.1,6.97,13.51,6.96,1.41-.01,6.05.33,7.99-3.03,1.62-2.81,4.3-14.2,2.98-17.33-2.04-4.84-13.19-7.85-13.19-7.85,0,0-8.77-1.78-11.05-1.46,0,0-3.26-.31-3.97,4.63h0Z"/>
        <path class="cls-1" d="M4.53,16.78c-.29,1.98.13,12.22,3.74,18.06,3.61,5.85,12.1,6.97,13.51,6.96,1.41-.01,6.05.33,7.99-3.03,1.62-2.81,4.3-14.2,2.98-17.33-2.04-4.84-13.19-7.85-13.19-7.85,0,0-8.77-1.78-11.05-1.46,0,0-3.26-.31-3.97,4.63h0Z"/>
        <path class="cls-5" d="M47.31,26.47s-.36-3.12,6.39-5.45c3.84-1.33,19.75,1.05,19.75,1.05,0,0,6.23,1.33,7.09,2.7s3.09,5.63,2.71,12.4c-.37,6.6-2.39,8.75-4.12,9.9,0,0-2.32,1.61-6.97,1.94-8.7.61-12.09-.37-15.09-2.52-9.76-7.01-9.76-20.02-9.76-20.02h0Z"/>
        <path class="cls-1" d="M47.31,26.47s-.36-3.12,6.39-5.45c3.84-1.33,19.75,1.05,19.75,1.05,0,0,6.23,1.33,7.09,2.7s3.09,5.63,2.71,12.4c-.37,6.6-2.39,8.75-4.12,9.9,0,0-2.32,1.61-6.97,1.94-8.7.61-12.09-.37-15.09-2.52-9.76-7.01-9.76-20.02-9.76-20.02h0Z"/>
      </g>
    </g>
  </g>
</svg>